<svg width="512" height="512" viewBox="0 0 512 512" fill="none" xmlns="http://www.w3.org/2000/svg">
  <rect width="512" height="512" rx="96" fill="#243A2D"/>
  <circle cx="256" cy="256" r="156" fill="#F4EFE5"/>
  <path d="M327 167C357 193 376 234 376 279C376 362 312 413 236 413C194 413 161 399 138 376C174 379 207 371 234 352C266 329 284 293 284 250C284 218 272 190 250 168C274 157 304 157 327 167Z" fill="#D8C48B"/>
  <path d="M196 319L223 195H257L284 319H251L246 286H229L224 319H196ZM233 256H242L238 227L233 256Z" fill="#243A2D"/>
  <path d="M300 320C266 320 243 294 243 258C243 221 268 193 306 193C325 193 340 198 353 209L338 233C329 226 320 223 309 223C289 223 276 237 276 258C276 280 288 291 306 291C312 291 318 290 324 287V271H304V243H356V305C341 315 322 320 300 320Z" fill="#243A2D"/>
</svg>
